<?xml version="1.0" standalone="no"?><!DOCTYPE svg PUBLIC "-//W3C//DTD SVG 1.1//EN" "http://www.w3.org/Graphics/SVG/1.1/DTD/svg11.dtd"><svg t="1773393509419" class="icon" viewBox="0 0 1024 1024" version="1.1" xmlns="http://www.w3.org/2000/svg" p-id="5672" xmlns:xlink="http://www.w3.org/1999/xlink" width="28" height="28"><path d="M409.6 375.466667l59.733333-98.133334L405.333333 264.533333c-17.066667-4.266667-29.866667-17.066667-34.133333-29.866666-4.266667-17.066667-4.266667-34.133333 8.533333-46.933334L490.666667 51.2c12.8-17.066667 29.866667-25.6 51.2-25.6 8.533333 0 12.8 0 21.333333 4.266667 21.333333 8.533333 38.4 25.6 46.933333 51.2 4.266667 25.6-4.266667 46.933333-21.333333 64L533.333333 192l46.933334 17.066667c12.8 4.266667 25.6 17.066667 29.866666 29.866666 4.266667 12.8 0 29.866667-8.533333 38.4l-140.8 153.6-51.2-55.466666z" fill="#E51F2E" p-id="5673"></path><path d="M541.866667 51.2h12.8c34.133333 8.533333 38.4 51.2 12.8 72.533333L490.666667 187.733333c-4.266667 4.266667-4.266667 12.8 4.266666 12.8l72.533334 25.6c12.8 4.266667 17.066667 21.333333 8.533333 29.866667L452.266667 388.266667l-12.8-17.066667 59.733333-93.866667c4.266667-8.533333 0-21.333333-8.533333-21.333333l-76.8-17.066667c-17.066667-4.266667-25.6-25.6-12.8-38.4l110.933333-136.533333c4.266667-8.533333 17.066667-12.8 29.866667-12.8m0-46.933333c-25.6 0-55.466667 12.8-72.533334 34.133333L358.4 174.933333c-17.066667 21.333333-21.333333 46.933333-12.8 68.266667 8.533333 25.6 29.866667 42.666667 51.2 46.933333l34.133333 8.533334-34.133333 55.466666-17.066667 25.6 21.333334 25.6 12.8 17.066667L448 469.333333l38.4-42.666666 123.733333-132.266667c17.066667-17.066667 21.333333-38.4 17.066667-59.733333-4.266667-21.333333-21.333333-38.4-42.666667-46.933334l-8.533333-4.266666 25.6-21.333334c25.6-21.333333 38.4-55.466667 29.866667-85.333333-4.266667-34.133333-29.866667-59.733333-59.733334-68.266667-12.8-4.266667-21.333333-4.266667-29.866666-4.266666z" fill="#492206" p-id="5674"></path><path d="M507.733333 1002.666667c-179.2 0-405.333333 0-405.333333-230.4C102.4 554.666667 285.866667 226.133333 507.733333 226.133333c226.133333 0 405.333333 332.8 405.333334 546.133334 0 230.4-226.133333 230.4-405.333334 230.4z" fill="#FECD00" p-id="5675"></path><path d="M507.733333 247.466667c213.333333 0 384 328.533333 384 524.8s-170.666667 209.066667-384 209.066666-384-12.8-384-209.066666 170.666667-524.8 384-524.8m0-46.933334C268.8 200.533333 76.8 546.133333 76.8 768c0 256 247.466667 256 430.933333 256s430.933333 0 430.933334-256c-4.266667-221.866667-196.266667-567.466667-430.933334-567.466667z" fill="#492206" p-id="5676"></path><path d="M401.066667 268.8l72.533333 17.066667-29.866667 81.066666 8.533334 25.6 153.6-128-162.133334-59.733333z" fill="#492206" p-id="5677"></path><path d="M452.266667 392.533333L576 260.266667c8.533333-8.533333 4.266667-25.6-8.533333-29.866667l-72.533334-25.6c-4.266667 0-8.533333-8.533333-4.266666-12.8L567.466667 128c25.6-21.333333 17.066667-64-12.8-72.533333-17.066667-4.266667-34.133333 0-46.933334 12.8L396.8 204.8c-12.8 12.8-4.266667 34.133333 12.8 38.4l76.8 17.066667c8.533333 0 12.8 12.8 8.533333 21.333333L435.2 375.466667l17.066667 17.066666z" fill="#E51F2E" p-id="5678"></path><path d="M669.866667 657.066667m-89.6 0a89.6 89.6 0 1 0 179.2 0 89.6 89.6 0 1 0-179.2 0Z" fill="#492206" p-id="5679"></path><path d="M691.2 627.2m-42.666667 0a42.666667 42.666667 0 1 0 85.333334 0 42.666667 42.666667 0 1 0-85.333334 0Z" fill="#F6F6F6" p-id="5680"></path><path d="M332.8 657.066667m-89.6 0a89.6 89.6 0 1 0 179.2 0 89.6 89.6 0 1 0-179.2 0Z" fill="#492206" p-id="5681"></path><path d="M354.133333 627.2m-42.666666 0a42.666667 42.666667 0 1 0 85.333333 0 42.666667 42.666667 0 1 0-85.333333 0Z" fill="#F6F6F6" p-id="5682"></path><path d="M443.733333 806.4s46.933333 59.733333 64 59.733333c17.066667 0 72.533333-72.533333 72.533334-72.533333H456.533333l-12.8 12.8z" fill="#F0B118" p-id="5683"></path><path d="M448 797.866667l46.933333-38.4c8.533333-4.266667 17.066667-4.266667 25.6 0l55.466667 38.4-55.466667 38.4c-8.533333 4.266667-17.066667 4.266667-25.6 0L448 797.866667z" fill="#DA6300" p-id="5684"></path><path d="M507.733333 849.066667c-4.266667 0-12.8 0-17.066666-4.266667l-46.933334-38.4c-4.266667 0-4.266667-4.266667-4.266666-8.533333s0-4.266667 4.266666-8.533334l46.933334-38.4c12.8-8.533333 25.6-8.533333 34.133333 0l55.466667 38.4c4.266667 0 4.266667 4.266667 4.266666 8.533334s0 4.266667-4.266666 8.533333l-55.466667 38.4c-4.266667 4.266667-12.8 4.266667-17.066667 4.266667z m-46.933333-51.2l38.4 29.866666h17.066667l42.666666-29.866666-42.666666-29.866667c-4.266667 0-8.533333-4.266667-17.066667 0l-38.4 29.866667z" fill="#492206" p-id="5685"></path><path d="M516.266667 814.933333c-46.933333 0-81.066667-8.533333-85.333334-8.533333-4.266667 0-8.533333-4.266667-4.266666-8.533333 0-4.266667 4.266667-8.533333 8.533333-4.266667 0 0 81.066667 17.066667 153.6 0 4.266667 0 8.533333 0 8.533333 4.266667s0 8.533333-4.266666 8.533333c-25.6 4.266667-51.2 8.533333-76.8 8.533333z" fill="#492206" p-id="5686"></path><path d="M409.6 243.2l76.8 17.066667c8.533333 0 12.8 12.8 8.533333 21.333333 12.8-21.333333 12.8-21.333333 8.533334-25.6-4.266667-4.266667-72.533333-17.066667-89.6-21.333333-12.8-4.266667-21.333333-17.066667-21.333334-21.333334-4.266667 8.533333 4.266667 25.6 17.066667 29.866667z" fill="#B70D22" p-id="5687"></path></svg>